<?xml version="1.0" encoding="UTF-8"?>
<svg id="Capa_2" data-name="Capa 2" xmlns="http://www.w3.org/2000/svg" viewBox="0 0 662.05 482.94">
  <defs>
    <style>
      .cls-1 {
        stroke-width: 0px;
      }
    </style>
  </defs>
  <g id="Layer_1" data-name="Layer 1">
    <g>
      <path class="cls-1" d="m543.04,100.81c-10.76,17.93-22.18,35.42-34.17,52.5-36.23,51.6-77.75,99.32-122.67,143.33-45.2,43.73-92.41,85.74-143.6,122.54-16.89,12.13-34.21,23.72-52.03,34.6-20.59,11.82-50.15,29.28-74.73,29.15-23.19-.88-30.45-20.79-23.7-40.62,7.03-21.36,19.73-39.26,32.1-57.02,10.94-14.93,22.33-29.44,34.08-43.63.55-.67,1.33-1.1,2.19-1.19,1.78-.18,4.87-.09,7.21,2.13,3.08,2.93,3.52,8.3.53,12.45-9.53,13.52-18.6,27.32-26.99,41.38-9.69,16.75-19.64,34.19-23.98,52.5v.05c-.5,2.44,1.82,4.54,4.2,3.83,5.64-1.69,11.31-4.55,16.91-7.53,11.04-6.04,21.99-13.46,32.74-21.17,12.09-9.04,23.95-18.34,35.64-27.89,82.35-67.16,155.63-145.61,228.65-222.54,17.1-18.36,34.24-37.07,50.46-56.36,9.76-11.61,19.21-23.46,28.11-35.58,7.74-10.73,15.18-21.68,21.19-32.78,2.91-5.58,5.78-11.27,7.4-16.89.68-2.37-1.41-4.63-3.84-4.17h-.06c-.08.03-.16.04-.24.06-18.21,4.55-35.51,14.43-52.24,24.03-14.11,8.31-28,17.27-41.66,26.64-3.56,2.9-8.53,2.85-11.65.14-2.15-1.87-3.19-4.8-2.82-7.76.1-.84.51-1.62,1.16-2.17,24.76-21.33,50.63-41.29,79.44-57.47,15.55-7.87,38.08-18.71,54.05-4.38,22.14,21.38-9.91,72.82-21.66,93.8Z"/>
      <path class="cls-1" d="m580.4,291.93c-20.29,5.07-40.73,9.36-61.29,12.96-62.1,10.87-125.2,15.25-188.09,14.61-62.89-1.04-125.98-4.71-188.19-14.89-20.52-3.36-40.96-7.42-61.26-12.32-22.91-6.2-56.16-14.76-73.46-32.23-15.77-17.03-6.83-36.23,11.97-45.48,20.08-10.13,41.72-13.81,63.02-17.62,18.29-2.82,36.61-5.03,54.95-6.75.86-.08,1.72.16,2.39.71,1.38,1.13,3.51,3.38,3.59,6.6.11,4.24-3.39,8.36-8.43,9.18-16.3,2.83-32.47,6.17-48.34,10.18-18.69,4.99-38.06,10.29-54.08,20.17l-.05.03c-2.07,1.38-1.92,4.5.27,5.68,5.18,2.79,11.21,4.78,17.28,6.63,12.08,3.54,25.07,6.03,38.12,8.18,14.94,2.16,29.91,3.97,44.92,5.49,105.72,10.74,213.01,7.08,319.04,4.32,25.07-.89,50.42-2,75.53-4.17,15.12-1.31,30.18-3.01,45.03-5.28,13.06-2.11,26.06-4.59,38.16-8.2,6-1.89,12.06-3.88,17.18-6.71,2.16-1.2,2.27-4.27.23-5.66l-.05-.03c-.07-.05-.14-.09-.21-.13-16.09-9.66-35.32-14.91-53.93-19.95-15.85-4.1-32.01-7.59-48.3-10.62-4.56-.47-8.05-4.02-8.34-8.14-.2-2.85,1.14-5.65,3.49-7.48.67-.52,1.51-.78,2.35-.72,32.59,2.43,64.99,6.6,96.81,15.53,16.56,5.43,40.15,13.7,41.31,35.12.54,30.77-58.5,44.49-81.64,51.01Z"/>
      <g>
        <path class="cls-1" d="m330.25,359.13c-23.38,20.51-45.68,38.69-67.65,55.16,21.18,8.39,44.26,13,68.42,13s46.89-4.54,67.93-12.81c-23.19-17.02-46.14-35.51-68.69-55.36Z"/>
        <path class="cls-1" d="m452.56,259.46c20.37-.73,42.03-1.63,63.7-3.24.38-4.87.58-9.79.58-14.76,0-11.38-1.03-22.51-2.99-33.33-2.13-2.63-3.42-5.81-3.66-9.13-.12-1.73.07-3.44.49-5.1-1.84-6.96-4.06-13.76-6.66-20.37-21.51,29.3-45.36,58.21-71.32,86.44.6-.02,1.21-.03,1.81-.05l18.03-.47Z"/>
        <path class="cls-1" d="m483.88,347.13c.36-3.34,1.69-6.48,3.86-8.98,1.13-1.3,2.47-2.37,3.92-3.24,3.59-6.16,6.83-12.54,9.71-19.12-35.92,5.51-73.22,9.08-111.53,10.68.44.41.88.83,1.31,1.25l13.09,12.42c14.91,13.89,30.87,28.56,47.32,42.75,12.25-10.45,23.13-22.47,32.32-35.75Z"/>
        <path class="cls-1" d="m235.61,83.6c-2.71,2.85-6.32,4.49-10.13,4.9-13.33,9.21-25.4,20.12-35.89,32.42,41.2,49.53,86.75,96.22,133.1,141.31,5.71-.05,11.42-.12,17.12-.2,26.3-26.77,52.04-53.9,77.45-80.7l12.42-13.09c13.89-14.91,28.56-30.87,42.75-47.33-10.45-12.25-22.47-23.12-35.74-32.31-3.35-.35-6.5-1.69-9-3.86-1.31-1.13-2.38-2.48-3.25-3.94-27.45-16-59.37-25.18-93.44-25.18s-65.83,9.13-93.24,25.06c-.6,1.04-1.31,2.02-2.16,2.91Z"/>
        <path class="cls-1" d="m158.19,173.03c-2.66,6.7-4.93,13.6-6.8,20.67.31,1.17.51,2.38.54,3.61.1,3.95-1.31,7.67-3.73,10.66-1.98,10.87-3.02,22.06-3.02,33.5,0,4.97.2,9.89.58,14.76,28.53,2.62,57.27,4.25,86.09,5.15-28.31-31.08-52.4-59.98-73.66-88.34Z"/>
        <path class="cls-1" d="m170.25,334.72c1.04.6,2.02,1.31,2.9,2.15,2.85,2.71,4.49,6.31,4.9,10.12,9.22,13.33,20.13,25.4,32.42,35.89,22.02-18.32,43.49-37.49,64.5-57.22-41.98-1.96-79.45-5.36-114.54-10.38,2.9,6.69,6.18,13.18,9.81,19.43Z"/>
      </g>
      <path class="cls-1" d="m471.68,453.49c-17.93-10.76-35.42-22.18-52.5-34.17-51.6-36.23-99.32-77.75-143.33-122.67-43.73-45.2-85.74-92.41-122.54-143.6-12.13-16.89-23.72-34.21-34.6-52.03-11.82-20.59-29.28-50.15-29.15-74.73.88-23.19,20.79-30.45,40.62-23.7,21.36,7.03,39.26,19.73,57.02,32.1,14.93,10.94,29.44,22.33,43.63,34.08.67.55,1.1,1.33,1.19,2.19.18,1.78.09,4.87-2.13,7.21-2.93,3.08-8.3,3.52-12.45.53-13.52-9.53-27.32-18.6-41.38-26.99-16.75-9.69-34.19-19.64-52.5-23.98-.02,0-.04,0-.05-.01-2.44-.49-4.54,1.83-3.83,4.21,1.69,5.64,4.55,11.31,7.53,16.91,6.04,11.04,13.46,21.99,21.17,32.74,9.04,12.09,18.34,23.95,27.89,35.64,67.16,82.35,145.61,155.63,222.54,228.65,18.36,17.1,37.07,34.24,56.36,50.46,11.61,9.76,23.46,19.21,35.58,28.11,10.73,7.74,21.68,15.18,32.78,21.19,5.58,2.91,11.27,5.78,16.89,7.4,2.37.68,4.63-1.41,4.17-3.84v-.06c-.03-.08-.04-.16-.06-.24-4.55-18.21-14.43-35.51-24.03-52.24-8.31-14.11-17.27-28-26.64-41.66-2.9-3.56-2.85-8.53-.14-11.65,1.87-2.15,4.8-3.19,7.76-2.82.84.1,1.62.51,2.17,1.16,21.33,24.76,41.29,50.63,57.47,79.44,7.87,15.55,18.71,38.08,4.38,54.05-21.38,22.14-72.82-9.91-93.8-21.66Z"/>
    </g>
  </g>
</svg>